HIERARCHY
ROOT Hips
{
	OFFSET -3.958830 18.904000 13.208200
	CHANNELS 6 Xposition Yposition Zposition Zrotation Yrotation Xrotation 
	JOINT LHipJoint
	{
		OFFSET 0.000000 0.000000 0.000000
		CHANNELS 3 Zrotation Yrotation Xrotation
		JOINT LeftUpLeg
		{
			OFFSET 1.800000 -1.400000 0.085000
			CHANNELS 3 Zrotation Yrotation Xrotation
			JOINT LeftLeg
			{
				OFFSET 2.215000 -6.000000 0.000000
				CHANNELS 3 Zrotation Yrotation Xrotation
				JOINT LeftFoot
				{
					OFFSET 2.500000 -6.900000 0.000000
					CHANNELS 3 Zrotation Yrotation Xrotation
					JOINT LeftToeBase
					{
						OFFSET 0.200000 -0.500000 1.950000
						CHANNELS 3 Zrotation Yrotation Xrotation
						End Site
						{
							OFFSET 0.000000 0.000000 0.000000
						}
					}
				}
			}
		}
	}
	JOINT RHipJoint
	{
		OFFSET 0.000000 0.000000 0.000000
		CHANNELS 3 Zrotation Yrotation Xrotation
		JOINT RightUpLeg
		{
			OFFSET -1.800000 -1.400000 0.085000
			CHANNELS 3 Zrotation Yrotation Xrotation
			JOINT RightLeg
			{
				OFFSET -2.215000 -6.000000 0.000000
				CHANNELS 3 Zrotation Yrotation Xrotation
				JOINT RightFoot
				{
					OFFSET -2.500000 -6.900000 0.000000
					CHANNELS 3 Zrotation Yrotation Xrotation
					JOINT RightToeBase
					{
						OFFSET -0.200000 -0.500000 1.950000
						CHANNELS 3 Zrotation Yrotation Xrotation
						End Site
						{
							OFFSET 0.000000 0.000000 0.000000
						}
					}
				}
			}
		}
	}
	JOINT LowerBack
	{
		OFFSET 0.000000 0.000000 0.000000
		CHANNELS 3 Zrotation Yrotation Xrotation
		JOINT Spine
		{
			OFFSET -0.087000 1.940000 -0.288900
			CHANNELS 3 Zrotation Yrotation Xrotation
			JOINT Spine1
			{
				OFFSET 0.000000 1.950000 0.060000
				CHANNELS 3 Zrotation Yrotation Xrotation
				JOINT Neck
				{
					OFFSET 0.000000 0.000000 0.000000
					CHANNELS 3 Zrotation Yrotation Xrotation
					JOINT Neck1
					{
						OFFSET 0.000000 1.600000 0.340000
						CHANNELS 3 Zrotation Yrotation Xrotation
						JOINT Head
						{
							OFFSET 0.000000 1.667000 -0.240000
							CHANNELS 3 Zrotation Yrotation Xrotation
							End Site
							{
								OFFSET 0.000000 0.000000 0.000000
							}
						}
					}
				}
				JOINT LeftShoulder
				{
					OFFSET 0.000000 0.000000 0.000000
					CHANNELS 3 Zrotation Yrotation Xrotation
					JOINT LeftArm
					{
						OFFSET 2.700000 1.550000 -0.730000
						CHANNELS 3 Zrotation Yrotation Xrotation
						JOINT LeftForeArm
						{
							OFFSET 5.450000 0.000000 0.000000
							CHANNELS 3 Zrotation Yrotation Xrotation
							JOINT LeftHand
							{
								OFFSET 3.450000 0.000000 0.000000
								CHANNELS 3 Zrotation Yrotation Xrotation
								JOINT LeftHandIndex1
								{
									OFFSET 0.750000 0.000000 0.000000
									CHANNELS 3 Zrotation Yrotation Xrotation
									End Site
									{
										OFFSET 0.000000 0.000000 0.000000
									}
								}
							}
						}
					}
				}
				JOINT RightShoulder
				{
					OFFSET 0.000000 0.000000 0.000000
					CHANNELS 3 Zrotation Yrotation Xrotation
					JOINT RightArm
					{
						OFFSET -2.700000 1.550000 -0.730000
						CHANNELS 3 Zrotation Yrotation Xrotation
						JOINT RightForeArm
						{
							OFFSET -5.450000 0.000000 0.000000
							CHANNELS 3 Zrotation Yrotation Xrotation
							JOINT RightHand
							{
								OFFSET -3.450000 0.000000 0.000000
								CHANNELS 3 Zrotation Yrotation Xrotation
								JOINT RightHandIndex1
								{
									OFFSET -0.750000 0.000000 0.000000
									CHANNELS 3 Zrotation Yrotation Xrotation
									End Site
									{
										OFFSET 0.000000 0.000000 0.000000
									}
								}
							}
						}
					}
				}
			}
		}
	}
}
MOTION
Frames: 6
Frame Time: 0.016667
-4.752720 17.778960 4.079540 0.607458 -3.487905 -2.744236 -15.482880 12.562967 4.755371 0.697314 -9.821319 -33.272039 -0.965956 10.750990 55.657007 0.968314 9.569520 1.131737 0.116250 0.087850 0.020340 18.016103 -10.573008 2.297559 -2.466655 0.864263 -11.576341 5.304880 -5.538939 21.126997 -0.123431 -3.594747 3.104608 0.078150 0.084860 -0.012380 -2.730571 -2.023257 -8.306040 2.834555 5.635044 16.546076 5.018021 7.217675 2.755166 -0.605326 -6.262269 -8.870083 -17.858452 4.501191 45.328071 2.181760 -1.884370 -0.919830 -29.667810 -7.492002 1.382088 -54.124206 -11.786248 -4.229742 -21.182489 -42.317814 5.327416 -3.616352 3.126729 0.141860 -0.022620 -0.001460 0.061250 31.452457 15.497560 7.327330 40.789531 2.869051 -3.399626 5.581969 8.105058 -0.189473 2.625278 -1.190691 -0.068680 0.137770 0.021110 0.000280 
-4.726150 17.756950 4.098670 0.805452 -3.843518 -2.463808 -15.422703 12.623491 4.657118 1.246545 -9.248555 -33.099873 -1.741835 10.260501 51.545070 0.788373 8.812494 1.365463 0.095130 0.061770 0.000830 18.052227 -10.675498 2.323047 -2.286990 0.935589 -12.143892 4.378975 -5.290706 21.517687 -0.095602 -3.552069 3.121140 0.065760 0.104170 -0.009970 -2.857816 -1.915920 -8.230391 3.382450 5.505311 15.913243 4.118964 7.081809 2.734185 -0.585138 -6.269032 -8.962052 -18.009883 4.616816 45.369900 2.091020 -1.914670 0.000410 -29.264308 -8.028319 1.143928 -53.600500 -13.034988 -3.686994 -15.317304 -38.295188 2.926426 -3.640795 3.072181 0.126650 -0.006370 -0.019780 0.060960 30.911330 15.748107 7.548944 42.488744 2.585300 -3.243221 4.803963 6.964129 -0.207205 2.647334 -1.194514 -0.073210 0.132920 0.032240 0.005160 
-4.696550 17.748740 4.124730 1.004555 -4.214094 -2.114446 -15.361904 12.698390 4.538140 1.888312 -8.582538 -32.637876 -2.763569 10.002954 47.659881 0.640672 8.147584 1.579244 0.074270 0.037680 -0.023140 18.087883 -10.771535 2.350245 -2.147688 0.994283 -12.651786 3.468756 -5.006184 21.637443 -0.067500 -3.491979 3.147362 0.052710 0.125430 -0.007280 -2.983773 -1.829177 -8.146671 3.898575 5.285718 15.215722 3.188908 6.843586 2.618918 -0.567666 -6.362884 -9.053645 -18.249260 4.826497 45.153611 2.064310 -1.898620 0.830010 -28.795760 -8.412102 0.983771 -52.871513 -13.690105 -3.264447 -10.198353 -34.103022 1.146406 -3.667763 3.026555 0.111720 0.009580 -0.037800 0.064020 30.320173 15.907951 7.705842 44.219144 2.263901 -3.186001 4.339508 6.087455 -0.201435 2.663954 -1.201071 -0.076500 0.128660 0.042950 0.012440 
-4.666460 17.745060 4.153300 1.234373 -4.384854 -1.571252 -15.305786 12.749399 4.410343 2.644105 -7.911681 -32.097521 -4.035654 9.907824 43.915526 0.513987 7.566233 1.774102 0.047930 0.009210 -0.047110 18.126409 -10.849793 2.368325 -2.242940 1.068665 -13.267834 2.977123 -4.823608 21.558547 -0.035638 -3.440259 3.168686 0.041240 0.150860 -0.007980 -3.111214 -1.728550 -8.039454 4.254764 4.987219 14.269705 2.173250 6.468628 2.619902 -0.527728 -6.295679 -8.978163 -17.892420 4.872427 44.442398 2.015730 -1.699500 1.555580 -27.827873 -8.473393 0.885986 -52.177631 -14.084638 -2.826827 -6.185313 -30.289856 0.016765 -3.706788 2.990360 0.092890 0.030110 -0.061040 0.064280 29.163344 15.624487 7.581840 46.337093 2.151217 -3.263649 4.594777 5.837480 -0.204762 2.673816 -1.209807 -0.086060 0.127460 0.055490 0.017460 
-4.636540 17.753020 4.186990 1.568285 -4.615555 -0.929192 -15.253033 12.800733 4.250776 3.445643 -7.138987 -31.149408 -5.602808 9.917799 40.052450 0.411269 7.024837 1.962094 0.023670 -0.016170 -0.067330 18.163791 -10.927882 2.382409 -2.467546 1.058653 -13.660652 2.541165 -4.579631 20.744484 -0.000546 -3.341609 3.207786 0.028740 0.174220 -0.006510 -3.230723 -1.615759 -7.901937 4.452370 4.749740 13.041580 1.174297 6.117028 2.786724 -0.488027 -6.187667 -8.889644 -17.376572 4.915087 43.647642 1.961060 -1.383770 2.258760 -26.440735 -8.354406 0.913322 -51.565279 -14.287337 -2.393958 -3.296126 -27.151066 -0.620662 -3.746594 2.970624 0.071450 0.050170 -0.081560 0.064860 27.606903 15.165855 7.357457 48.883466 2.174498 -3.402578 5.049676 5.779897 -0.213259 2.685750 -1.222239 -0.091350 0.123080 0.064620 0.023600 
-4.602560 17.778520 4.223620 1.837445 -5.047187 -0.254270 -15.197640 12.851123 4.067665 4.193808 -6.313917 -29.847728 -7.148573 9.847357 36.134911 0.322812 6.501386 2.150423 0.002880 -0.038990 -0.080370 18.204578 -11.002645 2.407143 -2.740747 0.954583 -13.665304 2.283498 -4.318457 19.115442 0.031924 -3.216850 3.260602 0.015900 0.192800 -0.002220 -3.356596 -1.491426 -7.757600 4.783719 4.539164 11.748056 0.097147 5.816204 2.947251 -0.365074 -6.052012 -8.771754 -16.757546 4.891839 42.846307 1.636050 -0.961420 2.915950 -25.226678 -8.084485 0.952907 -50.713156 -14.135735 -2.025167 -1.438392 -24.241049 -0.906158 -3.787593 2.959197 0.050560 0.070620 -0.098450 0.065200 26.050196 14.560638 7.099861 51.317209 2.179643 -3.600874 5.746182 5.944586 -0.229470 2.694219 -1.236898 -0.093900 0.115460 0.069450 0.027680 
